<svg width="27" height="28" viewBox="0 0 27 28" fill="none" xmlns="http://www.w3.org/2000/svg">
  <path d="M8.43966 2.01068H4.51449C3.82047 2.01068 3.15489 2.28638 2.66414 2.77712C2.1734 3.26786 1.89771 3.93345 1.89771 4.62747V8.55264M25.4488 8.55264V4.62747C25.4488 3.93345 25.1731 3.26786 24.6823 2.77712C24.1916 2.28638 23.526 2.01068 22.832 2.01068H18.9068M18.9068 25.5617H22.832C23.526 25.5617 24.1916 25.286 24.6823 24.7953C25.1731 24.3046 25.4488 23.639 25.4488 22.945V19.0198M1.89771 19.0198V22.945C1.89771 23.639 2.1734 24.3046 2.66414 24.7953C3.15489 25.286 3.82047 25.5617 4.51449 25.5617H8.43966" stroke="white" stroke-width="2.94388" stroke-linecap="round" stroke-linejoin="round" />
</svg>